<svg xmlns="http://www.w3.org/2000/svg" width="186" height="30" viewBox="0 0 186 30"><title>Prosper Logo link to Prosper homepage.</title><g fill="none" fill-rule="evenodd"><path d="M87.518 20.965l7.135-11.628c1.21.61 2.248 1.397 3.1 2.305l4.702-7.685a11.036 11.036 0 0 0-3.1-2.307C93.72-1.196 86.503.823 83.233 6.158c-3.266 5.334-1.347 11.964 4.285 14.807" fill="#F27000"></path><path d="M94.653 9.338l-7.135 11.628a11.033 11.033 0 0 1-3.098-2.305l-4.704 7.687a11.07 11.07 0 0 0 3.101 2.306c5.637 2.844 12.852.825 16.122-4.51 3.267-5.332 1.347-11.96-4.286-14.806" fill="#E20C77"></path><path d="M54.334 5.59C55.736 3.057 58.91.36 63.53.36c4.619 0 7.794 2.697 9.195 5.23.95 1.716 1.278 2.573 1.278 9.562 0 6.986-.329 7.844-1.278 9.561-1.401 2.534-4.576 5.23-9.195 5.23-4.62 0-7.794-2.696-9.196-5.23-.948-1.717-1.28-2.575-1.28-9.561 0-6.989.332-7.846 1.28-9.562m4.66 17.815c.908 1.145 2.433 2.125 4.536 2.125 2.102 0 3.628-.98 4.536-2.125 1.155-1.471 1.485-2.288 1.485-8.253 0-5.966-.33-6.783-1.485-8.254-.908-1.145-2.434-2.125-4.536-2.125-2.103 0-3.628.98-4.536 2.125-1.155 1.471-1.485 2.288-1.485 8.254 0 5.965.33 6.782 1.485 8.253M26.463.605h11.465c2.474 0 4.41.572 5.979 1.92 1.649 1.39 2.928 3.597 2.928 6.212 0 3.759-2.145 6.822-5.691 8.049l6.804 12.911H42.67l-6.062-12.422h-5.691v12.422h-4.454V.605zm4.454 12.748h6.721c3.341 0 4.99-2.165 4.99-4.616 0-1.512-.576-2.657-1.484-3.31-.824-.613-1.732-.899-3.258-.899h-6.97v8.825zM.239.605h10.638c2.31 0 4.33.286 6.598 2.044 1.774 1.348 3.176 3.8 3.176 6.945 0 4.126-3.176 8.745-9.197 8.745H4.692v11.358H.24V.605zM4.692 14.17h6.599c3.298 0 4.906-2.412 4.906-4.699 0-1.96-.784-3.146-1.896-3.883-.99-.652-1.897-.816-3.176-.816H4.692v9.398zM108.785.579h10.64c2.308 0 4.33.288 6.597 2.043 1.773 1.348 3.174 3.8 3.174 6.947 0 4.127-3.174 8.744-9.195 8.744h-6.764v11.359h-4.452V.579zm4.452 13.566h6.6c3.298 0 4.907-2.411 4.907-4.699 0-1.961-.784-3.146-1.897-3.882-.991-.653-1.898-.817-3.176-.817h-6.434v9.398zM134.685.579h18.763v4.168h-14.31v8.295h12.206v3.923h-12.206v8.54h14.31v4.167h-18.763V.579M160.484.579h11.465c2.473 0 4.411.573 5.978 1.921 1.65 1.388 2.929 3.596 2.929 6.21 0 3.76-2.145 6.824-5.692 8.05l6.804 12.912h-5.278l-6.062-12.421h-5.69v12.42h-4.454V.58zm4.453 12.75h6.723c3.34 0 4.99-2.167 4.99-4.619 0-1.51-.577-2.656-1.486-3.309-.825-.613-1.731-.899-3.258-.899h-6.969v8.826zM183.31 28.35v1.324h-.228V28.35h-.418v-.208h1.064v.208h-.417M185.104 29.673V28.65l-.349.746h-.17l-.357-.746v1.023h-.23v-1.53h.23l.443.951.433-.951h.23v1.53h-.23" fill="#818181"></path></g></svg>